<?xml version="1.0" encoding="UTF-8" standalone="no"?>
<svg xmlns="http://www.w3.org/2000/svg" viewBox="0 0 1200 200" width="1200" height="200">
  <!-- 蓝色调城市天际线 -->
  <style>
    .building {
      fill: #0c2d54;
      stroke: #183c6a;
      stroke-width: 0.5;
    }
    .light {
      fill: #ffcc66;
      opacity: 0.8;
      animation: blink 3s infinite alternate;
    }
    .port-crane {
      fill: #2a547a;
      stroke: #183c6a;
      stroke-width: 0.5;
    }
    .port-crane-detail {
      fill: none;
      stroke: #0c2d54;
      stroke-width: 0.5;
    }
    @keyframes blink {
      0% { opacity: 0.4; }
      100% { opacity: 0.8; }
    }
  </style>
  
  <!-- 基础填充 -->
  <rect x="0" y="190" width="1200" height="10" fill="#0c2d54" />
  
  <!-- 远处的建筑 -->
  <rect class="building" x="50" y="120" width="30" height="80" />
  <rect class="building" x="80" y="100" width="20" height="100" />
  <rect class="building" x="100" y="80" width="40" height="120" />
  <rect class="building" x="140" y="140" width="30" height="60" />
  <rect class="building" x="170" y="110" width="50" height="90" />
  
  <!-- 中间的高层建筑 -->
  <rect class="building" x="240" y="60" width="50" height="140" />
  <rect class="building" x="290" y="40" width="30" height="160" />
  <rect class="building" x="320" y="70" width="40" height="130" />
  <rect class="building" x="360" y="30" width="20" height="170" />
  <rect class="building" x="380" y="90" width="60" height="110" />
  
  <!-- 港口起重机结构 -->
  <rect class="port-crane" x="460" y="100" width="10" height="100" />
  <rect class="port-crane" x="470" y="95" width="60" height="10" />
  <rect class="port-crane" x="520" y="100" width="10" height="100" />
  <rect class="port-crane" x="480" y="110" width="5" height="90" />
  <rect class="port-crane" x="505" y="110" width="5" height="90" />
  <line class="port-crane-detail" x1="470" y1="95" x2="470" y2="190" />
  <line class="port-crane-detail" x1="530" y1="95" x2="530" y2="190" />
  
  <!-- 右侧建筑群 -->
  <rect class="building" x="570" y="50" width="40" height="150" />
  <rect class="building" x="610" y="80" width="50" height="120" />
  <rect class="building" x="660" y="40" width="30" height="160" />
  <rect class="building" x="690" y="90" width="40" height="110" />
  <rect class="building" x="730" y="60" width="25" height="140" />
  
  <!-- 远处更多建筑 -->
  <rect class="building" x="780" y="110" width="35" height="90" />
  <rect class="building" x="815" y="70" width="20" height="130" />
  <rect class="building" x="835" y="100" width="45" height="100" />
  <rect class="building" x="880" y="130" width="30" height="70" />
  <rect class="building" x="910" y="90" width="40" height="110" />
  
  <!-- 右侧高层建筑 -->
  <rect class="building" x="970" y="50" width="35" height="150" />
  <rect class="building" x="1005" y="30" width="25" height="170" />
  <rect class="building" x="1030" y="80" width="50" height="120" />
  <rect class="building" x="1080" y="60" width="30" height="140" />
  <rect class="building" x="1110" y="100" width="40" height="100" />
  
  <!-- 建筑物上的灯光 -->
  <rect class="light" x="65" y="130" width="2" height="2" />
  <rect class="light" x="85" y="110" width="2" height="2" />
  <rect class="light" x="115" y="90" width="2" height="2" />
  <rect class="light" x="145" y="150" width="2" height="2" />
  <rect class="light" x="255" y="70" width="2" height="2" />
  <rect class="light" x="295" y="50" width="2" height="2" />
  <rect class="light" x="335" y="80" width="2" height="2" />
  <rect class="light" x="365" y="40" width="2" height="2" />
  <rect class="light" x="585" y="60" width="2" height="2" />
  <rect class="light" x="625" y="90" width="2" height="2" />
  <rect class="light" x="665" y="50" width="2" height="2" />
  <rect class="light" x="695" y="100" width="2" height="2" />
  <rect class="light" x="985" y="60" width="2" height="2" />
  <rect class="light" x="1015" y="40" width="2" height="2" />
  <rect class="light" x="1045" y="90" width="2" height="2" />
  <rect class="light" x="1085" y="70" width="2" height="2" />
  
  <!-- 随机灯光点缀 -->
  <rect class="light" x="110" y="120" width="2" height="2" />
  <rect class="light" x="180" y="140" width="2" height="2" />
  <rect class="light" x="270" y="100" width="2" height="2" />
  <rect class="light" x="350" y="110" width="2" height="2" />
  <rect class="light" x="400" y="130" width="2" height="2" />
  <rect class="light" x="480" y="140" width="2" height="2" />
  <rect class="light" x="590" y="120" width="2" height="2" />
  <rect class="light" x="640" y="90" width="2" height="2" />
  <rect class="light" x="710" y="110" width="2" height="2" />
  <rect class="light" x="800" y="130" width="2" height="2" />
  <rect class="light" x="850" y="120" width="2" height="2" />
  <rect class="light" x="900" y="150" width="2" height="2" />
  <rect class="light" x="950" y="140" width="2" height="2" />
  <rect class="light" x="1000" y="100" width="2" height="2" />
  <rect class="light" x="1050" y="130" width="2" height="2" />
  <rect class="light" x="1100" y="110" width="2" height="2" />
</svg>